<svg xmlns="http://www.w3.org/2000/svg" width="100" height="100"><circle cx="50" cy="50" r="50" fill="#F5F5F5"/><g transform="translate(20 18.6)"><path fill="#D17511" fill-rule="nonzero" d="M58.2 25l-21 16H21L0 25"/><path fill="#FFB048" fill-rule="nonzero" d="M58.2 57H0l21-16h16.1z"/><path fill="#F90" fill-rule="nonzero" d="M21 41L0 57V25l6 4.5 4.4 3.4 2 1.4.4.4.6.4 1.2 1 .6.4 1.5 1.1.6.5.3.3 2 1.5h.2zm37.2-16v32l-21-16 1.2-1h.1l2-1.6.3-.3.7-.5 1.4-1 .7-.5 1.2-1 .6-.4.4-.4 1.5-1.1 4.8-3.6z"/><path fill="#F90" d="M0 25L26.7 1a3.5 3.5 0 014.7 0l26.8 24H0z"/><circle cx="57.9" cy="25.3" r="11.4" fill="#C9C9C9" fill-rule="nonzero" stroke="#FFF" stroke-width="2"/><path fill="#FFF" fill-rule="nonzero" d="M61.3 26c0 1.4-.3 2.5-.9 3.3-.6.8-1.5 1.1-2.6 1.2-1.1 0-2-.4-2.6-1.2-.6-.7-1-1.8-1-3.2v-2c0-1.4.4-2.5 1-3.2.6-.8 1.4-1.2 2.6-1.2 1.1 0 2 .4 2.6 1.2.6.7.9 1.8 1 3.2V26zm-2-2.1c0-.9-.2-1.5-.4-2-.2-.3-.6-.5-1.1-.5-.5 0-.9.2-1 .6-.3.3-.4 1-.5 1.7v2.6c0 .8.2 1.4.4 1.9.2.4.6.6 1.1.6.5 0 .9-.2 1-.6.3-.4.4-1 .4-1.8v-2.5z"/></g></svg>